<svg width="400" height="400" viewBox="0 0 400 400" fill="none" xmlns="http://www.w3.org/2000/svg">
<path fill-rule="evenodd" clip-rule="evenodd" d="M200 47.4676C149.566 47.4563 64.2772 68.8229 63.4667 99.9773L64.2772 201.221C71.3915 278.587 125.33 343.597 200 364.8C274.67 343.597 328.608 278.587 335.723 201.221L336.533 99.9773C336.418 75.6086 250.434 47.4563 200 47.4676Z" fill="#64FCD9"/>
<path fill-rule="evenodd" clip-rule="evenodd" d="M197.652 281.686L197.656 281.667C196.983 286.124 194.418 289.908 189.961 293.02C184.915 296.468 178.608 307.947 189.961 307.947C192.94 307.947 199.926 306.616 202.197 304.121C202.87 303.448 203.542 301.934 204.215 299.579C204.972 297.393 205.771 295.921 206.612 295.164C207.789 299.706 208.254 309.775 204.806 316.839C201.442 323.651 200.349 328.823 201.526 332.355C204.89 334.289 211.786 333.223 222.214 331.288C224.316 308.666 224.821 274.85 222.214 234.568C229.11 233.054 231.673 231.545 234.616 231.713C239.157 231.881 248.538 233.15 251.313 236.851C263.591 252.913 270.351 263.796 272.369 268.169C273.21 270.188 275.901 280.401 280.442 297.893C280.274 299.323 280.695 314.197 280.442 315.542C286.362 327.526 292.174 323.934 298.859 323.934C298.523 321.327 297.598 313.455 294.571 309.419C291.207 305.13 292.847 297.687 292.174 295.164C291.753 293.314 291.375 290.413 291.038 286.46C290.786 282.255 290.45 279.186 290.029 277.252C284.058 250.341 278.172 228.349 272.369 211.278C275.067 211.984 283.317 215.569 289.077 215.235C298.4 214.693 308.215 211.984 306.768 207.45C306.264 205.011 304.834 203.666 302.48 203.414C302.059 203.329 300.966 203.287 299.2 203.287C297.77 203.287 296.593 203.161 295.668 202.909C291.955 202.011 286.872 203.835 282.81 202.909C272.796 200.625 263.883 195.145 259.754 189.581C253.279 180.75 243.783 175.747 241.933 174.569C238.316 172.215 238.31 170.112 231.246 168.262C221.658 165.739 197.328 143.183 194.721 140.745C191.862 138.054 190.306 135.699 190.053 133.68C189.801 131.073 190.936 126.364 193.459 119.552C195.646 113.497 195.982 108.704 194.469 105.172C194.384 106.769 194.218 94.8277 191.023 90.2864C190.014 88.7727 188.542 86.8385 186.608 84.4838C184.253 81.6245 182.739 79.7743 182.066 78.9333C179.459 79.6902 177.189 82.129 175.255 86.2498C173.152 90.8751 171.26 93.6924 169.578 94.7015C169.104 94.5922 164.847 92.7435 161.993 92.1146C158.262 91.2922 154.152 91.5563 153.724 90.4126C153.051 88.3943 152.504 86.9226 152.084 85.9975C150.57 82.8018 148.51 81.204 145.903 81.204C142.959 81.204 139.343 82.7211 137.072 87.5988C136.652 88.5238 134.466 91.8226 131.27 100.989C126.729 113.94 126.14 125.607 126.728 130.653C128.579 146.463 131.017 156.471 134.045 160.676C134.381 161.012 135.39 161.39 137.072 161.811C138.418 162.147 139.133 162.778 139.217 163.703C138.544 166.562 131.009 173.35 129.411 178.732C127.729 184.282 126.552 188.445 125.879 191.22C123.44 200.976 122.809 209.89 123.987 217.963C124.744 223.093 125.164 231.124 125.248 242.057C125.332 253.662 125.669 262.114 126.257 267.412C126.51 269.935 127.056 273.299 127.897 277.504C128.99 282.634 129.663 286.04 129.915 287.722C131.177 295.795 130.925 302.775 129.159 308.662C125.206 313.708 119.83 321.108 118.4 329.013C118.4 335.011 134.849 336.822 142.829 327.859C144.766 325.684 146.051 312.843 144.705 301.742C144.032 295.603 145.6 284.989 146.693 273.972C147.87 261.694 149.649 253.366 149.564 249.834C149.312 241.845 152.63 228.89 155.49 227.545C166.422 234.272 189.666 240.207 190.844 240.796C191.853 241.384 192.442 242.015 192.61 242.688C195.824 268.896 197.504 281.898 197.649 281.696L197.652 281.686Z" fill="white"/>
<path fill-rule="evenodd" clip-rule="evenodd" d="M151.06 180.013C149.956 180.653 148.442 176.91 149.102 175.202C151.428 169.185 153.627 170.856 153.241 173.796C152.857 176.73 153.241 178.748 151.06 180.013Z" fill="#FFB61D"/>
<path fill-rule="evenodd" clip-rule="evenodd" d="M185.255 75.048L185.254 75.0478L185.254 75.0476L185.254 75.0475C184.845 74.1275 184.436 73.2075 183.996 72.3079C183.034 70.3415 180.437 69.7324 179.025 71.1377C178.189 71.9687 177.361 72.8067 176.532 73.6446C174.723 75.4737 172.914 77.3028 171.037 79.0588L170.77 79.3106C168.388 81.5863 166.412 84.1223 165.088 87.1499C164.982 87.3931 165.003 87.6922 165.025 87.9912C165.034 88.1298 165.044 88.2684 165.042 88.4014C165.186 88.3835 165.344 88.3814 165.502 88.3794C165.852 88.3748 166.201 88.3703 166.397 88.1946C166.767 87.862 167.064 87.4497 167.362 87.036C167.548 86.7764 167.736 86.5161 167.942 86.2747C170.111 83.7345 172.293 81.2046 174.491 78.6893C174.594 78.5722 174.776 78.5253 174.959 78.4784C175.044 78.4566 175.129 78.4348 175.206 78.4059C175.201 78.4977 175.202 78.591 175.203 78.6844C175.204 78.8868 175.206 79.0892 175.152 79.2756C175.013 79.7571 174.853 80.2345 174.693 80.7117L174.693 80.7117C174.394 81.607 174.095 82.5016 173.932 83.4209C173.501 85.8584 173.188 88.3246 173.012 90.7921C172.985 91.1659 173.506 91.6136 173.978 91.98L174.295 92.2231C174.38 92.2876 175.201 91.745 175.294 91.3831C175.518 90.5187 175.69 89.6411 175.862 88.7636L175.862 88.7634C176.034 87.8861 176.206 87.0088 176.429 86.1447C176.537 85.73 176.642 85.315 176.747 84.9001L176.747 84.8988L176.748 84.8974L176.748 84.896C177.641 81.3776 178.531 77.8694 180.506 74.6931C181.444 73.1835 181.976 73.6828 182.518 74.6479L183.332 76.1071C184.344 77.934 185.342 79.7733 186.349 81.6285C187.222 83.2367 188.101 84.8569 189.002 86.4913C189.372 87.2857 189.754 88.0664 190.132 88.8409L190.132 88.841C191.155 90.9348 192.156 92.9827 192.852 95.1294C193.715 97.7931 194.646 100.748 194.303 103.415C193.845 106.971 190.995 114.763 190.995 114.763C187.698 125.848 171.71 146.935 165.054 151.039C158.946 154.805 152.331 157.228 145.055 157.512C140.97 157.671 137.498 156.088 134.142 154.03L133.663 153.733C130.961 152.036 129.208 149.888 128.958 146.565C128.765 144.014 128.521 141.465 128.278 138.916C127.875 134.703 127.472 130.49 127.301 126.268C127.116 121.705 127.44 117.078 128.013 112.54C128.524 108.496 129.398 104.49 130.309 100.505L130.7 98.7976C132.806 89.6308 137.824 82.2311 144.868 76.1296C147.393 73.9427 149.531 74.3033 151.158 77.2285C151.851 78.4738 152.512 79.7368 153.173 80.9998L153.173 80.9998L153.173 81.0001L153.173 81.0002L153.173 81.0003L153.173 81.0004L153.173 81.0005L153.173 81.0006L153.173 81.0007L153.173 81.0008L153.173 81.0009L153.173 81.001C153.849 82.2916 154.524 83.5822 155.234 84.8539C155.407 85.1653 155.752 85.3814 156.096 85.5975C156.255 85.6973 156.414 85.7971 156.556 85.9062C156.564 85.7346 156.59 85.5547 156.617 85.3748C156.675 84.9856 156.733 84.5965 156.599 84.2914L156.381 83.7959C155.278 81.2797 154.173 78.7579 152.888 76.3331C151.008 72.7817 147.471 71.0981 143.702 73.9349C138.948 77.5138 135.122 81.9852 132.193 87.072C130.693 89.6764 129.732 92.6099 128.78 95.5167C128.584 96.1158 128.388 96.7137 128.187 97.3074L127.997 97.8803C126.236 103.232 125.039 108.728 124.646 114.363C124.521 116.153 124.569 117.955 124.616 119.756C124.63 120.322 124.645 120.888 124.655 121.453C124.669 122.347 124.679 123.24 124.689 124.134V124.134C124.718 126.832 124.746 129.53 124.922 132.218C125.061 134.352 125.28 136.481 125.498 138.61L125.498 138.61C125.757 141.128 126.015 143.646 126.142 146.171L126.157 146.414C126.695 154.387 133.797 158.79 139.829 160.275C145.056 161.562 150.672 161.263 156.05 159.193C162.183 157.268 167.215 153.62 171.958 149.752C178.092 144.749 193.552 118.963 196.211 109.775C197.797 104.297 197.528 99.1465 195.402 93.9097C193.514 89.2598 191.04 84.9974 188.242 80.8421C187.036 79.052 186.145 77.0502 185.255 75.048ZM126.916 215.053C126.9 214.408 126.881 213.763 126.862 213.118C126.761 209.717 126.66 206.302 127 202.944C127.616 196.851 129.095 190.944 131.864 185.439C132.989 183.202 133.922 180.824 134.649 178.415C135.565 175.382 137.442 173.087 139.332 170.777C139.662 170.374 139.992 169.97 140.317 169.562C141.819 167.679 143.255 165.73 144.592 163.719C145.26 162.713 145.54 162.573 146.182 163.723C148.852 168.506 155.139 169.689 159.686 166.82C167.126 162.126 173.566 156.161 180.005 150.195L180.426 149.806C183.451 147.004 186.162 143.809 187.575 139.688C187.73 139.236 188.071 138.816 188.415 138.481C188.661 138.241 188.961 138.061 189.26 137.88L189.26 137.88L189.26 137.88C189.391 137.801 189.522 137.722 189.649 137.638C189.636 137.785 189.631 137.933 189.625 138.082V138.082C189.612 138.402 189.6 138.722 189.521 139.023C188.294 143.718 185.577 147.466 182.307 150.769C178.357 154.76 174.393 158.761 170.169 162.425C167.105 165.083 163.676 167.314 160.27 169.499C159.153 170.216 157.741 170.489 156.387 170.752L156.384 170.752L156.382 170.753C156.204 170.787 156.028 170.821 155.854 170.856C154.805 171.066 154.478 171.541 154.424 172.601C154.406 172.951 154.396 173.305 154.387 173.66L154.387 173.66L154.387 173.66L154.387 173.66L154.387 173.661L154.387 173.661L154.387 173.661L154.387 173.662L154.387 173.662L154.387 173.662L154.387 173.663L154.387 173.663C154.333 175.633 154.279 177.626 152.827 179.197C152.199 179.876 151.408 180.425 150.61 180.881C150.377 181.014 149.682 180.74 149.511 180.451C147.835 177.627 147.077 174.637 149.729 172.021C150.692 171.071 149.64 170.566 149.362 170.471C147.945 169.989 147.181 168.875 146.409 167.749C146.246 167.511 146.083 167.274 145.913 167.041C145.742 166.807 144.931 166.697 144.835 166.839C143.972 168.108 143.056 169.342 142.141 170.576C139.801 173.73 137.46 176.884 135.988 180.637C135.612 181.596 135.232 182.554 134.852 183.512L134.851 183.514L134.851 183.514L134.851 183.514L134.851 183.514L134.851 183.514L134.851 183.514L134.851 183.514L134.851 183.514L134.851 183.514L134.851 183.514L134.851 183.514L134.851 183.514C133.711 186.388 132.571 189.262 131.531 192.175C129.243 198.581 128.684 205.251 129.008 212.041C129.052 212.965 129.099 213.89 129.145 214.815L129.145 214.815L129.145 214.816L129.145 214.816L129.145 214.817L129.145 214.817L129.145 214.818L129.145 214.818L129.146 214.819L129.146 214.819L129.146 214.82L129.146 214.82C129.345 218.773 129.546 222.729 129.532 226.682C129.515 231.767 129.234 236.857 128.909 241.933C128.759 244.275 128.502 246.608 128.246 248.942C128.085 250.405 127.925 251.869 127.79 253.334C127.248 259.245 128.084 265.055 128.984 270.872C129.34 273.173 129.524 275.505 129.708 277.834C129.758 278.472 129.808 279.109 129.862 279.746C130.438 286.553 130.917 293.398 129.967 300.173C129.802 301.345 129.696 302.536 129.59 303.729C129.254 307.5 128.916 311.295 126.731 314.594C125.999 315.699 125.141 316.798 124.12 317.593C123.63 317.974 123.202 318.248 122.81 318.5L122.81 318.5C121.428 319.388 120.488 319.991 118.808 323.999C117.039 328.22 118.896 329.756 120.088 330.743C120.349 330.959 120.578 331.148 120.731 331.334C120.33 332.068 118.276 331.875 117.509 331.271C115.08 329.357 115.137 325.964 116.228 322.96C117.428 319.657 118.989 316.856 122.113 315.664C125.203 314.485 126.204 311.813 126.677 308.994C127.498 304.103 128.27 299.149 128.411 294.201C128.528 290.078 128.14 285.93 127.754 281.797C127.683 281.031 127.611 280.266 127.543 279.502C127.016 273.594 126.462 267.68 125.623 261.815C125.029 257.663 125.378 253.568 125.727 249.474C125.84 248.148 125.953 246.822 126.034 245.495C126.266 241.687 126.618 237.887 126.97 234.087L126.97 234.087L126.97 234.086L126.97 234.086L126.97 234.086L126.97 234.086L126.971 234.086L126.971 234.086L126.971 234.086L126.971 234.086L126.971 234.085L126.971 234.085C127.199 231.623 127.427 229.161 127.623 226.697C127.702 225.693 127.667 224.679 127.63 223.61C127.61 223.037 127.589 222.449 127.586 221.838C127.504 220.974 127.402 220.137 127.301 219.316C127.123 217.862 126.951 216.459 126.916 215.053ZM150.25 178.131C151.251 177.193 151.271 175.984 151.291 174.773C151.307 173.826 151.323 172.878 151.806 172.056C151.881 171.928 151.556 171.34 151.362 171.307C151.068 171.257 150.571 171.408 150.432 171.644C150.05 172.291 149.72 172.97 149.39 173.65L149.39 173.65L149.39 173.65L149.39 173.65L149.39 173.65L149.39 173.65L149.39 173.651L149.39 173.651L149.39 173.651L149.39 173.651L149.39 173.651L149.39 173.651C149.239 173.962 149.088 174.272 148.932 174.58C148.111 176.201 148.721 177.368 150.25 178.131ZM205.975 315.475C206.809 313.703 207.499 311.749 207.708 309.818C208.241 304.897 208.672 299.947 208.764 295.002C208.837 291.045 208.716 287.084 208.595 283.124V283.123V283.123V283.123V283.123V283.123V283.123V283.123V283.123V283.122V283.122V283.122C208.541 281.334 208.486 279.546 208.45 277.758C208.431 276.825 208.422 275.891 208.413 274.958C208.406 274.289 208.4 273.621 208.389 272.953C208.241 263.221 205.43 254.223 200.652 245.828C200.175 244.99 198.597 244.214 197.629 244.319C194.529 244.654 191.603 244.054 188.643 243.447L188.642 243.447C188.117 243.339 187.591 243.231 187.063 243.128C182.454 242.23 178.025 240.874 174.01 238.504C170.668 236.531 167.492 234.265 164.326 232.005L164.303 231.988C164.018 231.785 163.734 231.582 163.449 231.379C161.068 229.682 158.714 227.912 156.562 225.941C155.314 224.799 154.632 225.403 154.133 226.337C151.957 230.418 149.908 234.586 149.242 239.224C148.287 245.87 147.351 252.524 146.65 259.201C145.939 265.973 145.386 272.762 144.834 279.55L144.834 279.551C144.726 280.871 144.619 282.191 144.51 283.511C144.108 288.403 143.78 293.303 143.47 298.202C143.225 302.068 143.427 305.85 144.067 309.743C144.84 314.446 144.846 319.523 142.733 323.972C140.85 327.936 137.405 330.498 132.828 330.903C130.197 331.135 128.359 328.268 129.824 326.035C130.579 324.884 131.775 324.009 132.952 323.149C133.276 322.911 133.599 322.675 133.911 322.434C134.105 322.285 134.477 322.365 134.848 322.445C135.019 322.481 135.191 322.518 135.345 322.533C135.285 322.669 135.234 322.812 135.183 322.954C135.069 323.27 134.955 323.585 134.758 323.835C134.547 324.102 134.291 324.344 134.036 324.584C133.626 324.971 133.221 325.353 133.019 325.828C132.751 326.456 132.85 327.479 133.216 328.052C133.443 328.407 134.657 328.55 135.112 328.272C138.008 326.501 140.521 324.385 141.099 320.712C141.191 320.13 141.385 319.552 141.579 318.978C141.854 318.163 142.127 317.355 142.098 316.55C142.006 313.932 141.766 311.319 141.526 308.705L141.526 308.705L141.526 308.705L141.526 308.705L141.526 308.705L141.526 308.705L141.526 308.705L141.526 308.704L141.526 308.704L141.526 308.704L141.526 308.704L141.526 308.704L141.526 308.704C141.41 307.439 141.294 306.174 141.195 304.908L141.179 304.71C141.06 303.198 140.941 301.68 140.955 300.167C141.001 295.184 141.066 290.201 141.213 285.221L141.237 284.407C141.45 277.192 141.663 269.975 142.03 262.767C142.191 259.612 142.593 256.466 142.993 253.326L142.994 253.325L142.994 253.325L142.994 253.324L142.994 253.324L142.994 253.323L142.994 253.323L142.994 253.322C143.055 252.845 143.116 252.369 143.176 251.892C143.625 248.323 144.106 244.753 144.73 241.211C145.788 235.207 147.576 229.442 150.838 224.225C151.363 223.385 151.209 221.918 148.954 222.078C147.805 222.159 145.759 222.519 143.965 222.835C142.242 223.138 140.752 223.4 140.512 223.335C140.756 222.939 145.416 220.952 147.533 220.816C152.668 220.486 156.714 223.094 160.668 226.019L161.139 226.367L161.661 226.755C166.756 230.533 171.866 234.323 177.909 236.552C182.161 238.121 186.477 239.425 191.032 239.797C191.901 239.868 192.762 240.023 193.624 240.179C194.211 240.285 194.798 240.391 195.388 240.471C195.61 240.501 195.845 240.426 196.081 240.35C196.189 240.316 196.298 240.281 196.405 240.257C196.359 240.172 196.317 240.084 196.275 239.996C196.182 239.802 196.089 239.608 195.959 239.444C195.55 238.926 195.127 238.413 194.669 237.939C185.052 227.979 177.656 214.414 177.731 213.882C177.931 214.02 178.936 215.379 180.168 217.046L180.169 217.047L180.169 217.047L180.17 217.048C181.635 219.03 183.422 221.447 184.564 222.768C189.396 228.357 194.415 233.788 199.474 239.176C205.259 245.337 208.733 252.632 210.418 260.821C211.282 265.018 211.939 269.232 211.567 273.582C211.296 276.745 211.199 279.923 211.101 283.101C211.061 284.427 211.02 285.753 210.967 287.078C210.937 287.814 210.907 288.549 210.878 289.284V289.284V289.285V289.285V289.285V289.285V289.285V289.285V289.286V289.286V289.286V289.286C210.738 292.721 210.598 296.155 210.492 299.591L210.49 299.671C210.464 300.603 210.295 306.897 208.434 313.078C206.964 317.961 204.23 322.783 203.156 324.678C202.944 325.051 202.797 325.311 202.736 325.435C201.966 327.017 202 328.054 203.426 328.264C204.635 328.442 206.179 328.3 206.607 326.368L206.631 326.262C206.743 325.752 206.862 325.214 207.14 324.801C207.303 324.559 207.599 324.406 207.895 324.254C208.027 324.186 208.158 324.119 208.278 324.043C208.307 324.12 208.235 324.383 208.136 324.751C207.775 326.092 207.04 328.815 209.394 328.89C211.781 328.967 211.675 327.602 211.608 326.746C211.598 326.608 211.588 326.483 211.59 326.38L211.59 326.357C211.604 325.612 211.624 324.511 212.249 324.421C213.64 324.221 213.68 325.563 213.709 326.53L213.709 326.538C213.716 326.779 213.705 327.019 213.694 327.256C213.648 328.257 213.605 329.195 214.95 329.804C216.431 330.473 217.545 330.062 218.525 329.102C219.561 328.087 219.292 326.957 218.355 325.979C216.44 323.98 216.565 321.4 216.712 319.022C217.009 314.229 217.485 309.446 217.962 304.664L217.962 304.663C218.09 303.386 218.217 302.109 218.341 300.833C218.516 299.023 218.72 297.217 218.924 295.411L218.924 295.41C219.106 293.791 219.289 292.171 219.451 290.549C219.695 288.118 219.925 285.685 220.156 283.252L220.156 283.252L220.156 283.248C220.425 280.41 220.694 277.572 220.983 274.736C221.071 273.878 221.204 273.023 221.338 272.168C221.537 270.893 221.736 269.618 221.782 268.336C221.85 266.411 221.798 264.482 221.745 262.552V262.552V262.552V262.551V262.551V262.551V262.551V262.55V262.55V262.55V262.55V262.549L221.745 262.549C221.715 261.45 221.685 260.351 221.677 259.252C221.671 258.345 221.691 257.436 221.71 256.528V256.527V256.527V256.526V256.526V256.525V256.525V256.524V256.524V256.523V256.523V256.522C221.738 255.237 221.766 253.952 221.721 252.669C221.679 251.51 221.663 250.346 221.646 249.18C221.6 245.889 221.553 242.592 220.949 239.403C220.501 237.037 218.893 232.58 217.776 229.481C217.136 227.708 216.657 226.379 216.648 226.143C217.126 226.541 220.623 232.402 221.728 235.004L221.75 235.054C222.804 237.538 222.859 237.667 225.276 236.669C229.961 234.735 234.812 233.478 239.853 232.974C240.2 232.939 240.554 232.981 240.908 233.023H240.908H240.908H240.909H240.909H240.909H240.909H240.909H240.909H240.91H240.91H240.91L240.91 233.023C241.216 233.059 241.523 233.095 241.826 233.082C242.158 233.068 242.486 232.971 242.815 232.875C242.961 232.832 243.107 232.789 243.254 232.753C243.155 232.627 243.064 232.489 242.973 232.351C242.775 232.051 242.577 231.751 242.302 231.566C241.485 231.017 240.649 230.497 239.812 229.976L239.812 229.976L239.812 229.976L239.811 229.976L239.811 229.975L239.811 229.975L239.81 229.975L239.81 229.975L239.81 229.975L239.81 229.974L239.809 229.974L239.809 229.974C238.98 229.458 238.151 228.942 237.341 228.399C235.687 227.289 234.67 226.546 233.29 225.538L233.29 225.538L233.107 225.405L232.75 225.144C232.582 225.021 232.408 224.894 232.226 224.762C231.962 224.57 230.953 223.489 230.796 223.15C231.148 223.05 241.72 226.812 245.07 231.174C247.983 234.965 250.715 238.903 253.379 242.876C256.713 247.848 259.934 252.898 263.132 257.959C263.383 258.356 263.634 258.753 263.885 259.15L263.886 259.151C266.517 263.311 269.15 267.474 271.583 271.749L271.851 272.218C273.991 275.977 276.159 279.783 277.65 283.812C279.742 289.465 281.489 295.272 281.487 301.461C281.487 303.133 281.704 304.805 281.921 306.477L281.921 306.477C282.099 307.852 282.277 309.227 282.336 310.604C282.474 313.876 281.668 317.005 280.445 320.064C280.209 320.654 280.488 321.468 280.752 322.239C280.832 322.47 280.91 322.698 280.972 322.915C281.012 323.052 281.667 323.1 282.015 323.045C283.255 322.849 283.532 321.995 283.686 320.844C283.814 319.893 284.231 318.97 284.638 318.07L284.728 317.871L284.791 317.731C284.889 317.511 285.523 317.298 285.714 317.412C285.973 317.566 286.166 318.037 286.17 318.374C286.175 318.717 286.133 319.065 286.091 319.411V319.412V319.412V319.412V319.412V319.412V319.412V319.412V319.413V319.413V319.413V319.413C286.028 319.931 285.965 320.446 286.061 320.934C286.221 321.751 286.679 322.564 287.198 323.229C287.385 323.467 288.511 323.392 288.557 323.249C288.738 322.686 288.789 322.08 288.839 321.477C288.849 321.366 288.858 321.255 288.868 321.145C288.872 321.096 288.877 321.046 288.882 320.997C288.891 320.909 288.874 320.817 288.857 320.726C288.839 320.629 288.822 320.532 288.835 320.439C288.935 319.723 289.047 319.008 289.159 318.293C289.198 318.045 289.237 317.797 289.275 317.55C289.42 317.729 289.566 317.907 289.711 318.086C290.223 318.715 290.735 319.343 291.237 319.98C291.269 320.021 291.267 320.092 291.264 320.162C291.262 320.233 291.26 320.303 291.294 320.339C291.455 320.502 291.612 320.676 291.769 320.851L291.769 320.851C292.218 321.351 292.67 321.854 293.232 322.107C293.519 322.236 294.658 321.365 294.743 320.841C294.877 320.014 294.737 318.826 294.209 318.264C291.767 315.663 290.185 312.601 289.485 309.201C289.132 307.491 289.02 305.734 288.907 303.975V303.974L288.907 303.974C288.835 302.845 288.763 301.716 288.627 300.598L288.442 299.065C287.794 293.712 287.146 288.357 286.327 283.029C285.717 279.056 285 275.099 284.284 271.143L284.284 271.143C283.923 269.149 283.562 267.156 283.215 265.16C283.166 264.877 283.215 264.571 283.262 264.277L283.271 264.22L283.278 264.174C284.173 258.427 283.184 252.792 281.958 247.239L281.744 246.268L281.744 246.268L281.744 246.267L281.744 246.267L281.744 246.267L281.744 246.266L281.744 246.266L281.744 246.266L281.743 246.265L281.743 246.265L281.743 246.265L281.743 246.264C280.18 239.176 278.61 232.06 276.387 225.168C275.059 221.05 273.235 217.092 271.412 213.134C270.614 211.402 269.816 209.67 269.059 207.924C268.775 207.269 268.498 206.609 268.221 205.95L268.221 205.949L268.221 205.949L268.22 205.949L268.22 205.949L268.22 205.949L268.22 205.948L268.22 205.948L268.22 205.948L268.22 205.948L268.22 205.948L268.22 205.948C267.523 204.289 266.826 202.63 266.016 201.029L265.774 200.55L265.774 200.55L265.773 200.55L265.773 200.549C263.954 196.952 262.13 193.345 260.048 189.899C257.454 185.609 254.291 181.666 250.09 178.875C246.695 176.62 243.035 174.704 239.333 172.984C235.244 171.084 231.073 169.359 226.903 167.634L226.9 167.632C225.645 167.113 224.391 166.595 223.139 166.071C222.298 165.719 221.44 165.403 220.584 165.087L220.583 165.087L220.583 165.087L220.583 165.087L220.583 165.087L220.582 165.087L220.582 165.087L220.582 165.087L220.582 165.087L220.581 165.086L220.581 165.086L220.581 165.086C219.596 164.723 218.612 164.36 217.651 163.943C217.358 163.816 217.16 163.471 216.962 163.126C216.871 162.967 216.78 162.809 216.68 162.671C216.83 162.671 216.983 162.66 217.136 162.649C217.464 162.625 217.793 162.602 218.091 162.687C226.145 164.983 233.73 168.434 241.322 171.888C242.489 172.419 243.656 172.95 244.825 173.476C250.721 176.134 255.711 179.838 259.501 185.011C261.868 188.242 264.147 191.634 265.814 195.254C266.658 197.087 267.794 198.545 269.122 199.754C269.111 199.862 269.088 199.975 269.065 200.089C269.014 200.346 268.962 200.602 269.056 200.791C270.056 202.792 271.077 204.787 272.193 206.729C272.481 207.23 273.068 207.712 273.628 207.907C274.425 208.185 275.219 208.472 276.014 208.759L276.014 208.76L276.015 208.76L276.015 208.76L276.015 208.76L276.015 208.76L276.015 208.76L276.015 208.76L276.015 208.76C278.612 209.699 281.213 210.639 283.892 211.254C288.162 212.234 292.518 211.548 296.705 210.56C297.045 210.48 297.405 210.419 297.772 210.357L297.772 210.357L297.773 210.357L297.773 210.357C299.276 210.103 300.916 209.825 301.94 208.1C301.808 207.91 301.689 207.685 301.569 207.46C301.305 206.964 301.041 206.469 300.653 206.35C299.344 205.948 297.845 205.597 296.533 205.818C291.338 206.696 286.186 207.549 281.02 205.8C283.226 206.415 285.508 206.739 287.879 206.583C290.586 206.406 293.282 206.01 295.971 205.614L295.971 205.614L295.972 205.614L295.972 205.614L295.973 205.614L295.973 205.614L295.973 205.614L295.974 205.614L295.974 205.613L295.974 205.613L295.975 205.613L295.975 205.613C296.3 205.566 296.625 205.518 296.95 205.47C300.123 205.007 304.121 206.92 303.375 210.35C302.905 212.512 301.299 213.557 299.46 214.011C298.781 214.179 298.101 214.356 297.421 214.533L297.421 214.533C293.248 215.617 289.042 216.711 284.676 215.868C282.548 215.458 280.465 214.817 278.381 214.176L278.379 214.176L278.379 214.175L278.378 214.175L278.378 214.175L278.378 214.175L278.377 214.175L278.377 214.175L278.377 214.175L278.377 214.175L278.376 214.175L278.376 214.175C277.369 213.865 276.362 213.555 275.349 213.272C275.068 213.193 274.772 213.162 274.477 213.131C274.34 213.117 274.204 213.102 274.068 213.083C274.09 213.148 274.11 213.214 274.131 213.28L274.149 213.341L274.169 213.406C274.239 213.638 274.31 213.87 274.41 214.089C278.217 222.36 281.021 230.943 282.622 239.919C282.944 241.722 283.326 243.514 283.707 245.307L283.707 245.308L283.707 245.308C284.184 247.546 284.66 249.784 285.019 252.041C285.33 253.989 285.47 255.963 285.61 257.938C285.688 259.033 285.766 260.129 285.873 261.221C285.928 261.786 285.982 262.351 286.036 262.917C286.272 265.399 286.508 267.882 286.876 270.345C287.294 273.14 287.751 275.929 288.209 278.719C288.872 282.767 289.536 286.815 290.078 290.88C290.429 293.504 290.601 296.151 290.773 298.799L290.773 298.8L290.773 298.8L290.773 298.8L290.773 298.801L290.773 298.801L290.773 298.802L290.773 298.802L290.773 298.803L290.773 298.803L290.773 298.804L290.773 298.804C290.891 300.614 291.009 302.423 291.183 304.226C291.651 309.056 292.608 313.725 296.15 317.437C297.458 318.807 297.577 321.17 296.608 322.746C295.545 324.474 293.909 325.039 291.693 324.488C291.251 324.378 290.704 324.245 290.325 324.405C288.382 325.225 286.52 325.875 284.727 324.026C284.582 323.877 283.704 324.311 283.253 324.605C280.252 326.564 277.75 324.52 277.677 321.424C277.651 320.308 277.903 319.121 278.302 318.07C279.905 313.842 279.953 309.488 279.595 305.073C279.512 304.054 279.461 303.03 279.41 302.007C279.319 300.193 279.228 298.38 278.963 296.592C277.831 288.96 275.112 281.861 271.105 275.289C265.585 266.236 259.987 257.23 254.338 248.257C253.138 246.352 251.851 244.502 250.563 242.653L250.562 242.652L250.561 242.651C249.528 241.167 248.494 239.682 247.505 238.168C246.05 235.939 243.875 236.119 241.88 236.284C241.554 236.311 241.233 236.338 240.921 236.353C237.291 236.535 233.891 237.714 230.489 238.893L230.488 238.893L230.488 238.893L230.488 238.893L230.488 238.893L230.488 238.893L230.488 238.893L230.488 238.893L230.488 238.893L230.488 238.893L230.487 238.893L230.487 238.893L230.487 238.893C228.909 239.44 227.331 239.987 225.728 240.435C223.508 241.056 223.67 242.341 223.839 243.678C223.873 243.951 223.908 244.225 223.923 244.496C223.987 245.681 224.095 246.863 224.202 248.045V248.045V248.045V248.045V248.046V248.046V248.046V248.046V248.046V248.046V248.046V248.047C224.334 249.494 224.465 250.942 224.518 252.392L224.54 252.983L224.567 253.735C224.755 258.837 224.943 263.942 224.894 269.043C224.876 270.889 224.615 272.732 224.352 274.576C224.199 275.654 224.046 276.733 223.941 277.813C223.684 280.469 223.446 283.127 223.208 285.785L223.208 285.786C222.885 289.389 222.562 292.992 222.192 296.59C222.054 297.932 221.926 299.277 221.798 300.622C221.354 305.295 220.91 309.973 220.03 314.564C219.205 318.867 219.948 322.672 221.44 326.571C222.29 328.793 220.062 331.827 217.515 331.803C217.276 331.801 217.026 331.813 216.771 331.825C215.479 331.887 214.066 331.955 213.432 330.192C213.379 330.046 212.454 329.957 212.301 330.144C211.476 331.145 210.487 331.017 209.502 330.889C209.148 330.843 208.794 330.798 208.448 330.804C208.1 330.811 207.749 330.796 207.398 330.78H207.397H207.396H207.396H207.395H207.394H207.394H207.393H207.392H207.392H207.391H207.39H207.39C206.749 330.752 206.11 330.724 205.492 330.828C203.559 331.157 201.932 330.534 200.783 329.126C199.661 327.75 200.005 326.148 201.064 324.617C201.428 323.963 201.791 323.316 202.153 322.673L202.153 322.673L202.153 322.673L202.153 322.672L202.153 322.672L202.153 322.672L202.154 322.671L202.154 322.671L202.154 322.671L202.154 322.671L202.154 322.671L202.154 322.671C203.507 320.263 204.829 317.91 205.975 315.475ZM277.089 204.408C277.856 204.696 278.634 204.966 279.412 205.237L279.412 205.237L279.412 205.237L279.413 205.237L279.413 205.238L279.413 205.238L279.413 205.238L279.414 205.238C279.856 205.392 280.299 205.546 280.74 205.703C280.833 205.737 280.926 205.769 281.02 205.8C279.683 205.428 278.374 204.95 277.089 204.408ZM271.809 201.76C272.653 202.284 273.537 202.756 274.444 203.198C275.315 203.623 276.196 204.031 277.089 204.408C275.226 203.709 273.42 202.909 271.809 201.76ZM271.809 201.76C271.099 201.253 270.427 200.679 269.804 200.016C269.702 199.907 269.53 199.859 269.357 199.812C269.277 199.79 269.196 199.768 269.123 199.739L269.122 199.754C269.951 200.509 270.855 201.167 271.809 201.76ZM143.207 131.462C140.355 132.802 137.454 133.494 134.502 132.822C133.561 132.608 132.442 131.371 132.165 130.391C131.464 127.908 131.038 125.343 130.614 122.786L130.614 122.786C130.566 122.493 130.517 122.2 130.468 121.906C130.103 119.728 131.446 118.407 133.276 117.884C137.206 116.762 141.196 116.244 145.021 118.407C149.466 120.92 148.867 127.481 145.959 129.463C145.254 129.943 144.569 130.452 143.83 131.001L143.828 131.002C143.626 131.152 143.419 131.306 143.207 131.462ZM144.243 121.206C144.189 121.143 144.135 121.064 144.082 120.985C143.966 120.813 143.85 120.642 143.725 120.634C143.172 120.601 142.615 120.625 142.058 120.649L142.057 120.649C141.853 120.657 141.649 120.666 141.445 120.672C141.522 120.835 141.602 120.996 141.681 121.157L141.681 121.157C141.86 121.518 142.038 121.878 142.181 122.252C142.41 122.854 142.611 123.466 142.812 124.079L142.812 124.079L142.812 124.079L142.812 124.079L142.812 124.079L142.812 124.079L142.812 124.079L142.812 124.079L142.812 124.08C142.877 124.279 142.943 124.479 143.009 124.679C143.089 124.918 143.162 125.159 143.236 125.401L143.236 125.401L143.236 125.402C143.269 125.511 143.303 125.619 143.336 125.728C143.443 125.673 143.555 125.625 143.668 125.577L143.668 125.577C143.911 125.472 144.155 125.366 144.34 125.196C145.652 123.985 145.169 122.698 144.243 121.206ZM200.411 256.977C200.378 256.521 200.344 256.062 200.31 255.599C200.249 255.369 200.165 255.203 200.094 255.061C200.035 254.944 199.984 254.844 199.961 254.737C199.788 253.931 199.623 253.122 199.459 252.314L199.459 252.313L199.459 252.313L199.459 252.312L199.458 252.312L199.458 252.312L199.458 252.311L199.458 252.311L199.458 252.31L199.458 252.31C199.099 250.545 198.74 248.781 198.286 247.041C198.261 246.944 198.242 246.828 198.222 246.702C198.117 246.053 197.973 245.167 196.725 245.581C195.446 246.006 195.56 246.625 195.766 247.748L195.766 247.748C195.776 247.803 195.786 247.859 195.796 247.916C196.571 252.211 197.114 256.554 197.586 260.897C197.948 264.22 198.129 267.566 198.283 270.907C198.339 272.125 198.419 273.345 198.499 274.566C198.725 278.034 198.951 281.506 198.641 284.926C198.257 289.171 195.645 292.54 191.888 294.798C188.318 296.943 184.92 299.199 183.507 303.47C182.634 306.107 183.485 307.98 185.925 308.051C186.375 308.064 186.831 307.854 187.288 307.644C187.497 307.548 187.707 307.452 187.916 307.377C187.758 307.203 187.61 307.002 187.462 306.801C187.135 306.356 186.807 305.91 186.375 305.754C185.208 305.332 185.125 305.048 185.593 303.83C186.557 301.32 188.035 299.426 190.35 298.088C194.041 295.955 197.295 293.267 199.304 289.459C201.765 284.796 202.917 279.808 202.16 274.472C201.705 271.262 201.369 268.034 201.049 264.807C200.794 262.243 200.607 259.672 200.411 256.977ZM215.432 182.574C214.293 176.073 213.185 169.766 211.981 163.476C211.163 159.199 208.155 156.576 204.818 154.158C204.425 153.873 204.028 153.589 203.63 153.305C201.369 151.69 199.075 150.053 197.289 148.002C194.185 144.437 189.02 135.923 189.272 131.481C189.44 128.521 190.477 125.077 190.477 125.077C190.477 125.077 189.976 131.2 190.477 133.069C192.242 139.649 197.062 144.863 201.506 148.356C202.529 149.16 203.587 149.926 204.645 150.691L204.645 150.692L204.645 150.692L204.645 150.692L204.646 150.692L204.646 150.692L204.646 150.692L204.646 150.692C206.73 152.2 208.813 153.707 210.614 155.499C212.36 157.236 213.765 159.518 214.129 162.294C214.337 163.882 214.593 165.454 214.851 167.031L214.851 167.032L214.851 167.032L214.851 167.032L214.851 167.032L214.851 167.032L214.851 167.032L214.851 167.033L214.851 167.033C215.371 170.218 215.895 173.426 216.03 176.836C216.185 180.75 218.295 186.445 219.3 189.158C219.622 190.027 219.83 190.59 219.825 190.692C219.461 190.555 216.763 185.851 215.78 183.635C215.655 183.351 215.541 183.062 215.432 182.574ZM182.517 96.0613C178.388 94.0668 174.212 92.17 169.849 90.2333C167.775 89.7208 165.814 89.2105 163.881 88.7071L163.879 88.7065L163.877 88.706L163.869 88.7041L163.859 88.7014L163.859 88.7013L163.848 88.6984C163.216 88.5341 162.588 88.3705 161.959 88.2078C157.405 87.0294 152.813 87.1567 148.334 88.3613C146.283 88.9129 144.323 89.8166 142.37 90.7175C141.777 90.9911 141.184 91.2644 140.589 91.5276C140.393 91.6146 140.305 91.9484 140.218 92.2821C140.178 92.4368 140.137 92.5916 140.086 92.7217C140.222 92.7498 140.359 92.7862 140.496 92.8226C140.815 92.9072 141.134 92.9918 141.445 92.9714C141.655 92.9577 141.854 92.8324 142.056 92.7052C142.185 92.6244 142.314 92.5428 142.449 92.4884C146.324 90.9232 150.356 89.9734 154.526 89.8581C161.057 89.6774 167.252 91.2957 173.233 93.7945C174.622 94.375 175.995 94.9944 177.368 95.6137C178.764 96.2435 180.16 96.8733 181.573 97.4622C181.974 97.6292 182.452 97.6123 182.929 97.5953C183.149 97.5875 183.369 97.5797 183.582 97.5899C183.472 97.4245 183.373 97.2342 183.275 97.0439L183.275 97.0438L183.275 97.0436C183.062 96.6329 182.85 96.2221 182.517 96.0613ZM159.967 109.481C159.557 108.023 161.16 108.002 162.524 108.167C165.326 108.506 168.155 108.617 170.984 108.728H170.984L170.985 108.728L170.985 108.728L170.985 108.728L170.985 108.728L170.986 108.728C172.148 108.774 173.31 108.82 174.47 108.881C174.737 108.895 175.114 108.879 175.497 108.863C176.344 108.828 177.226 108.791 177.038 109.072C172.964 115.166 161.565 115.166 159.967 109.481ZM134.661 136.244C134.034 139.896 134.906 142.236 138.903 143.147C140.326 143.471 142.089 142.586 143.084 142.031C144.627 141.171 146.116 140.213 147.604 139.255L147.605 139.255C148.104 138.933 148.603 138.612 149.105 138.294C149.057 138.763 150.423 141.937 151.339 142.508C151.973 142.052 152.227 141.599 152.494 141.121C152.58 140.969 152.667 140.814 152.767 140.656C152.917 140.421 152.981 140.132 153.046 139.842C153.078 139.694 153.111 139.546 153.156 139.404C153.304 138.933 153.347 138.411 153.391 137.889C153.503 136.54 153.615 135.189 155.525 134.71C155.605 134.69 155.704 134.677 155.81 134.664H155.81C156.283 134.603 156.902 134.523 156.659 133.689C156.361 132.669 155.524 132.94 155.143 133.079C153.513 133.671 151.92 134.393 150.377 135.191C148.566 136.129 146.768 137.092 144.97 138.056L144.968 138.057L144.968 138.057L144.968 138.057L144.967 138.058L144.967 138.058C143.29 138.957 141.613 139.856 139.925 140.733C138.243 141.607 136.976 140.493 135.881 139.121C135.084 138.124 135.271 136.307 135.384 135.216C135.427 134.797 135.459 134.486 135.42 134.369C135.024 134.761 134.738 135.797 134.661 136.244ZM149.193 138.239L149.105 138.294C149.107 138.271 149.113 138.255 149.123 138.245C149.138 138.231 149.161 138.229 149.193 138.239ZM149.193 138.239C149.581 137.993 149.97 137.75 150.362 137.511C150.738 137.282 151.175 137.153 151.613 137.025C151.815 136.966 152.016 136.907 152.212 136.838C152.105 137.138 152.038 137.566 151.966 138.022C151.844 138.804 151.708 139.669 151.339 140.122C151.263 140.216 150.793 139.737 150.304 139.237C149.852 138.776 149.383 138.298 149.193 138.239ZM206.542 290.386L206.542 290.386C206.568 289.61 206.591 288.904 206.703 288.212C206.749 287.921 206.972 287.658 207.194 287.395C207.295 287.276 207.396 287.156 207.48 287.034C207.565 287.155 207.675 287.277 207.785 287.399C208.021 287.662 208.257 287.924 208.247 288.177C208.029 293.669 207.76 299.24 205.142 304.169C204.118 306.096 201.956 307.585 200.008 308.778C199.164 309.294 197.242 308.963 196.359 308.293C194.933 307.212 194.805 305.3 195.679 303.735C196.289 302.642 197.343 301.746 198.349 300.955C198.577 300.776 199.029 300.88 199.479 300.984C199.686 301.032 199.892 301.08 200.077 301.1C199.993 301.229 199.912 301.36 199.832 301.491C199.654 301.781 199.476 302.071 199.259 302.329C199.044 302.584 198.802 302.823 198.561 303.062C198.107 303.51 197.656 303.957 197.392 304.497C197.109 305.079 197.12 306.26 197.504 306.596C197.976 307.009 199.125 307.132 199.721 306.842C203.421 305.044 204.67 301.615 205.355 297.872C205.736 295.789 206.112 293.705 206.5 291.42C206.519 291.06 206.531 290.717 206.542 290.387V290.386ZM134.646 112.196C137.774 112.576 143.52 108.586 143.52 107.726C143.52 106.866 135.723 105.98 132.612 105.68C131.183 105.542 130.341 105.959 130.226 107.398C130.061 109.465 132.363 111.918 134.646 112.196ZM191.98 308.71C188.44 306.437 189.144 304.14 192.533 300.761C192.926 300.369 193.451 299.981 193.971 299.878C194.352 299.803 194.766 299.895 195.18 299.987L195.18 299.987C195.361 300.027 195.542 300.067 195.721 300.094C195.646 300.208 195.576 300.326 195.505 300.444L195.505 300.444C195.35 300.702 195.196 300.959 195.004 301.185C194.051 302.307 193.09 303.425 192.094 304.509C191.011 305.687 191.897 306.172 192.811 306.638C192.93 306.699 193.08 306.72 193.226 306.741C193.416 306.768 193.599 306.794 193.696 306.904C193.982 307.233 194.209 307.613 194.437 307.994C194.529 308.147 194.621 308.301 194.717 308.452C194.572 308.494 194.428 308.542 194.284 308.589C193.95 308.7 193.616 308.81 193.272 308.863C192.885 308.922 192.475 308.837 191.98 308.71ZM129.986 324.459C129.176 324.531 128.366 324.603 127.45 324.77C126.968 325.165 126.465 325.529 125.97 325.888C124.847 326.701 123.765 327.486 123.061 328.527C122.401 329.502 122.526 331.392 122.994 332.604C123.248 333.263 124.49 333.617 125.504 333.906C125.641 333.945 125.774 333.983 125.899 334.02C126.441 334.181 127.196 333.998 127.725 333.723C128.11 333.523 128.419 333.179 128.729 332.834C128.864 332.684 129 332.534 129.141 332.395C128.959 332.325 128.751 332.219 128.544 332.112C128.093 331.882 127.643 331.652 127.449 331.787C126.406 332.517 126.058 331.804 125.779 331.233C125.702 331.075 125.63 330.929 125.551 330.826C125.278 330.475 125.449 329.434 125.799 329.015C126.256 328.467 126.804 327.997 127.352 327.526C127.762 327.173 128.173 326.821 128.547 326.434C128.935 326.034 129.248 325.561 129.56 325.088C129.7 324.876 129.84 324.664 129.987 324.458L129.986 324.459Z" fill="#00160A"/>
<path fill-rule="evenodd" clip-rule="evenodd" d="M44.5083 123.821C39.6543 124.621 36.5242 129.798 37.5171 135.384C38.0989 138.658 39.9678 141.585 42.3925 143.528L43.0649 154.511C43.1305 155.566 44.2494 156.495 44.9415 156.06L49.2646 153.136L54.7972 157.665C55.6829 158.424 56.5369 157.72 56.2292 156.475L53.0736 143.875C54.8421 141.768 55.677 138.318 55.095 134.418C54.1021 127.766 49.3623 123.021 44.5083 123.821ZM48.1037 145.981C49.2628 146.044 50.3237 145.816 51.2536 145.338L53.3481 153.521L49.3751 150.388C48.9845 150.09 48.5498 150.049 48.2446 150.277L45.1398 152.498L44.6934 145.029C45.7906 145.579 46.9439 145.917 48.1037 145.981ZM44.9578 126.591C48.5983 126.091 52.1531 129.649 52.8977 134.539C53.6423 139.428 51.2948 143.311 47.6543 143.211C46.3734 143.176 45.1031 142.694 43.9622 141.901C43.902 141.85 43.8385 141.805 43.7727 141.767C41.7606 140.333 40.1823 137.959 39.7143 135.263C38.9697 130.974 41.3173 127.091 44.9578 126.591Z" fill="#FFB61D"/>
<path fill-rule="evenodd" clip-rule="evenodd" d="M344.052 209.155C348.906 209.955 352.036 215.132 351.043 220.717C350.461 223.991 348.592 226.918 346.167 228.861L345.495 239.844C345.429 240.899 344.31 241.828 343.618 241.394L339.295 238.469L333.763 242.999C332.877 243.758 332.023 243.053 332.331 241.809L335.486 229.208C333.718 227.102 332.883 223.651 333.465 219.751C334.458 213.099 339.198 208.355 344.052 209.155ZM340.456 231.314C339.297 231.378 338.236 231.149 337.306 230.671L335.212 238.854L339.185 235.722C339.575 235.424 340.01 235.382 340.315 235.611L343.42 237.832L343.866 230.362C342.769 230.913 341.616 231.25 340.456 231.314ZM343.602 211.925C339.962 211.425 336.407 214.983 335.662 219.872C334.918 224.761 337.265 228.644 340.906 228.544C342.186 228.509 343.457 228.027 344.598 227.234C344.658 227.183 344.721 227.138 344.787 227.1C346.799 225.666 348.378 223.293 348.846 220.597C349.59 216.307 347.243 212.425 343.602 211.925Z" fill="#FFB61D"/>
</svg>
